<?xml version="1.0" encoding="UTF-8"?>
<!DOCTYPE svg PUBLIC "-//W3C//DTD SVG 1.1//EN" "http://www.w3.org/Graphics/SVG/1.1/DTD/svg11.dtd">
<!-- Creator: CorelDRAW 2019 (64-Bit) -->
<svg xmlns="http://www.w3.org/2000/svg" xml:space="preserve" width="10.6246mm" height="9.1164mm" version="1.1" style="shape-rendering:geometricPrecision; text-rendering:geometricPrecision; image-rendering:optimizeQuality; fill-rule:evenodd; clip-rule:evenodd"
viewBox="0 0 5.55 4.76"
 xmlns:xlink="http://www.w3.org/1999/xlink">
 <defs>
  <style type="text/css">
   <![CDATA[
    .fil0 {fill:#FF2F2F}
   ]]>
  </style>
 </defs>
 <g id="Слой_x0020_1">
  <metadata id="CorelCorpID_0Corel-Layer"/>
  <g id="_2242566578528">
   <path class="fil0" d="M5.35 1.58l0.04 0.04c0.2,0.2 0.2,0.54 0,0.74l-2.25 2.25c-0.2,0.2 -0.54,0.2 -0.74,0l-2.25 -2.25c-0.2,-0.2 -0.2,-0.54 0,-0.74l0.04 -0.04c0.2,-0.2 0.54,-0.2 0.74,0l1.47 1.47c0.2,0.2 0.54,0.2 0.74,0l1.47 -1.47c0.2,-0.2 0.54,-0.2 0.74,0z"/>
   <path class="fil0" d="M3.01 0.1l0.19 0.19c0.13,0.13 0.13,0.34 0,0.47l-0.19 0.19c-0.13,0.13 -0.34,0.13 -0.47,0l-0.19 -0.19c-0.13,-0.13 -0.13,-0.34 0,-0.47l0.19 -0.19c0.13,-0.13 0.34,-0.13 0.47,0z"/>
  </g>
 </g>
</svg>
